<?xml version="1.0" encoding="UTF-8" standalone="no"?>
<!DOCTYPE svg PUBLIC "-//W3C//DTD SVG 1.1//EN" "http://www.w3.org/Graphics/SVG/1.1/DTD/svg11.dtd">
<svg width="100%" height="100%" viewBox="0 0 240 240" version="1.1" xmlns="http://www.w3.org/2000/svg" xmlns:xlink="http://www.w3.org/1999/xlink" xml:space="preserve" xmlns:serif="http://www.serif.com/" style="fill-rule:evenodd;clip-rule:evenodd;stroke-linejoin:round;stroke-miterlimit:2;">
    <path d="M129.27,2.597L129.185,2.555C139.489,8.847 145.866,10.579 157.944,10.283C164.574,10.156 170.782,13.704 173.95,19.532C179.735,30.132 184.423,34.819 195.023,40.605C200.851,43.814 204.44,49.98 204.271,56.61C204.018,68.688 205.707,75.065 211.999,85.369C215.462,91.028 215.462,98.165 211.999,103.824C205.707,114.128 203.976,120.505 204.271,132.583C204.398,139.213 200.851,145.421 195.023,148.588C185.69,153.698 180.918,157.921 175.977,166.114L196.501,207.162C199.035,212.188 197.008,218.269 191.982,220.761L155.664,238.92C150.807,241.369 144.895,239.511 142.277,234.781L119.979,194.62L97.681,234.781C95.063,239.511 89.151,241.327 84.294,238.92L47.976,220.761C42.992,218.269 40.965,212.188 43.457,207.162L64.023,166.156C59.04,157.964 54.31,153.741 44.977,148.631C39.149,145.421 35.56,139.256 35.729,132.625C35.982,120.547 34.293,114.171 28.001,103.866C24.538,98.207 24.538,91.07 28.001,85.411C34.293,75.107 36.024,68.73 35.729,56.652C35.602,50.022 39.149,43.814 44.977,40.647C55.577,34.861 60.265,30.174 66.05,19.574C69.26,13.746 75.426,10.156 82.056,10.325C94.134,10.579 100.511,8.89 110.815,2.597C116.474,-0.866 123.611,-0.866 129.27,2.597ZM40.519,94.5C40.513,97.201 41.24,99.903 42.702,102.292C47.913,110.826 49.368,116.155 49.205,126.022L49.197,126.388L49.195,126.573C49.095,132.103 52.104,137.234 56.97,139.914C64.813,144.208 68.789,147.757 72.977,154.643L73.017,154.643C73.565,155.551 74.117,156.517 74.68,157.55C77.378,162.448 82.559,165.464 88.132,165.322C98.282,165.109 103.642,166.529 112.302,171.817C117.058,174.728 123.056,174.728 127.812,171.817L127.741,171.853C136.401,166.565 141.76,165.109 151.911,165.358C157.483,165.464 162.7,162.483 165.362,157.585C167.997,152.758 170.361,149.39 173.391,146.543C175.955,144.141 178.996,142.11 183.072,139.878C185.269,138.684 187.08,136.976 188.4,134.953C190.036,132.466 190.923,129.506 190.845,126.427L190.845,126.423C190.662,117.713 191.682,112.53 195.317,105.763C195.918,104.645 196.591,103.484 197.34,102.257C198.796,99.878 199.523,97.189 199.523,94.5C199.523,91.811 198.796,89.122 197.34,86.743C196.591,85.516 195.918,84.355 195.317,83.237C191.682,76.47 190.662,71.287 190.845,62.577L190.845,62.573C190.923,59.494 190.036,56.534 188.4,54.047C187.08,52.024 185.269,50.316 183.072,49.122C178.996,46.89 175.955,44.859 173.391,42.457C170.361,39.61 167.997,36.242 165.362,31.415C162.7,26.517 157.483,23.536 151.911,23.642C141.76,23.891 136.401,22.435 127.741,17.147L127.812,17.183C123.056,14.272 117.058,14.272 112.302,17.183C103.642,22.471 98.282,23.891 88.132,23.678C82.559,23.536 77.378,26.552 74.68,31.45C74.117,32.483 73.565,33.449 73.017,34.357L72.977,34.357C68.789,41.243 64.813,44.792 56.97,49.086C52.104,51.766 49.095,56.897 49.195,62.427L49.197,62.612L49.205,62.978C49.368,72.845 47.913,78.174 42.702,86.708C41.24,89.097 40.513,91.799 40.519,94.5ZM120.021,38.105C151.017,38.105 176.523,63.611 176.523,94.607C176.523,125.603 151.017,151.109 120.021,151.109C89.025,151.109 63.519,125.603 63.519,94.607C63.519,63.611 89.025,38.105 120.021,38.105ZM120.021,54.076C97.781,54.076 79.48,72.377 79.48,94.618C79.48,116.858 97.781,135.159 120.021,135.159C142.261,135.159 160.563,116.858 160.563,94.618C160.563,72.377 142.261,54.076 120.021,54.076ZM133.623,183.446C133.955,183.28 134.28,183.1 134.597,182.906C132.874,183.96 131.065,184.811 129.202,185.458C130.033,186.294 130.756,187.25 131.345,188.31L152.306,226.064L183.595,210.42L165.806,174.841C161.555,177.195 156.688,178.452 151.662,178.356L151.593,178.354C144.42,178.178 140.635,179.211 134.516,182.948L133.623,183.446ZM110.795,185.418C108.976,184.778 107.21,183.942 105.526,182.912C99.393,179.167 95.595,178.169 88.405,178.32C83.361,178.438 78.485,177.18 74.227,174.81L56.366,210.421L87.652,226.064L108.613,188.31C109.211,187.233 109.948,186.264 110.795,185.418Z"/>
</svg>
