<?xml version="1.0" encoding="UTF-8" standalone="no"?>
<!DOCTYPE svg PUBLIC "-//W3C//DTD SVG 1.1//EN" "http://www.w3.org/Graphics/SVG/1.1/DTD/svg11.dtd">
<svg width="100%" height="100%" viewBox="0 0 240 240" version="1.1" xmlns="http://www.w3.org/2000/svg" xmlns:xlink="http://www.w3.org/1999/xlink" xml:space="preserve" xmlns:serif="http://www.serif.com/" style="fill-rule:evenodd;clip-rule:evenodd;stroke-linejoin:round;stroke-miterlimit:2;">
    <g transform="matrix(0.422306,0,0,0.422306,25.424493,13.534919)">
        <path d="M356.5,361.3C355.972,362.227 355.048,363.807 354.126,365.395C353.212,366.968 352.301,368.547 351.778,369.505C344.276,383.308 329.573,391.71 313.87,391.41C285.263,390.71 270.16,394.811 245.755,409.714L245.955,409.614C232.552,417.816 215.648,417.816 202.245,409.614C177.84,394.711 162.737,390.71 134.13,391.31C118.427,391.71 103.824,383.208 96.222,369.405C94.634,366.495 92.944,363.96 91.4,361.4C79.6,342 68.4,332 46.3,319.9C32.5,312.3 24,297.7 24.4,282C25,253.4 21,238.3 6.1,213.9C-2.1,200.5 -2.1,183.6 6.1,170.2C21,145.8 25.1,130.7 24.4,102.1C24.1,86.4 32.5,71.7 46.3,64.2C71.4,50.5 82.5,39.4 96.2,14.3C103.8,0.5 118.4,-8 134.1,-7.6C162.7,-7 177.8,-11 202.2,-25.9C215.6,-34.1 232.5,-34.1 245.9,-25.9L245.7,-26C270.1,-11.1 285.2,-7 313.8,-7.7C329.5,-8 344.2,0.4 351.7,14.2C365.4,39.3 376.5,50.4 401.6,64.1C415.4,71.7 423.9,86.3 423.5,102C422.9,130.6 426.9,145.7 441.8,170.1C450,183.5 450,200.4 441.8,213.8C426.9,238.2 422.8,253.3 423.5,281.9C423.8,297.6 415.4,312.3 401.6,319.8C379.5,331.9 368.2,341.9 356.5,361.3ZM224,96C171.336,96 128,139.336 128,192C128,244.664 171.336,288 224,288C276.664,288 320,244.664 320,192C320,139.336 276.664,96 224,96ZM70.341,398.018C71.239,399.584 72.144,401.203 73.059,402.88C81.384,417.996 97.377,427.307 114.575,426.869C145.904,426.212 162.445,430.594 189.173,446.915C195.131,450.562 201.722,452.728 208.431,453.414L171.1,523.9C164.9,535.1 150.9,539.4 139.4,533.7L53.4,490.7C41.6,484.8 36.8,470.4 42.7,458.5L70.341,398.018ZM237.588,453.454C244.437,452.815 251.173,450.635 257.252,446.915L257.033,447.025C283.761,430.703 300.302,426.212 331.631,426.979C348.829,427.307 364.932,418.106 373.147,402.989C374.056,401.325 374.954,399.717 375.845,398.161L405.1,458.5C411.1,470.4 406.3,484.8 394.4,490.7L308.4,533.7C296.9,539.5 282.9,535.1 276.7,523.9L237.588,453.454Z"/>
    </g>
</svg>
