<svg width="100%" height="100%" viewBox="0 0 227 240" version="1.1" xmlns="http://www.w3.org/2000/svg">
    <g transform="matrix(1,0,0,1,-6.61892,-0)">
        <g transform="matrix(0.863529,0,0,0.863529,-701.407921,-192.109398)">
            <g id="Line">
                <path d="M934.412,293.881C937.977,278.041 935.375,262.815 924.299,252.731C909.592,239.34 882.024,235.558 838.915,247.555C842.462,274.237 849.396,293.025 861.914,304.381C870.448,312.122 881.567,316.075 895.561,316.94C901.282,317.294 907.071,315.978 912.289,314.175C917.024,312.539 922.196,315.055 923.832,319.79C925.468,324.525 922.952,329.698 918.217,331.333C910.81,333.893 902.56,335.562 894.439,335.06C875.765,333.904 861.106,328.158 849.717,317.826C833.492,303.108 823.792,278.402 819.973,241.946C819.52,237.629 822.188,233.595 826.338,232.322C882.669,215.043 918.039,222.48 936.521,239.308C955.078,256.205 958.449,283.31 948.5,309.919C952.221,315.129 955.18,320.421 957.306,325.728C959.448,323.921 961.53,322.231 963.571,320.643C961.454,306.065 966.785,289.163 977.646,278.518C977.827,278.34 978.015,278.171 978.21,278.01C1010.766,251.045 1043.524,254.787 1076.481,266.618C1079.985,267.876 1082.366,271.146 1082.486,274.868C1083.517,306.722 1056.36,348.431 1003.451,351.066C997.609,351.357 992.503,350.731 988.082,349.448C983.271,348.051 980.499,343.011 981.895,338.2C983.292,333.389 988.332,330.617 993.143,332.014C995.847,332.799 998.976,333.112 1002.549,332.934C1039.898,331.075 1061.429,304.808 1064.084,281.565C1039.307,273.575 1014.586,271.642 990.092,291.742C985.669,296.199 982.695,302.325 981.614,308.572C993.377,301.984 1005.913,297.315 1023.463,291.348C1028.206,289.736 1033.366,292.278 1034.979,297.021C1036.591,301.764 1034.049,306.924 1029.306,308.536C999.002,318.838 984.987,324.755 961.237,346.45L961.237,363.631L1020.287,363.631C1027.14,363.631 1033.944,367.551 1038.088,375.106C1041.389,381.126 1042.553,388.925 1041.084,396.204L1024.042,480.621C1021.561,492.909 1012.464,500.4 1003.245,500.4L901.076,500.4C891.856,500.4 882.759,492.909 880.278,480.621L863.236,396.204C861.767,388.925 862.931,381.126 866.233,375.106C870.376,367.551 877.18,363.631 884.033,363.631L943.083,363.631L943.083,345L943.083,344.992C943.091,335.651 938.485,326.229 931.126,317.034C931.093,316.993 931.061,316.952 931.028,316.911C918.412,301.203 897.843,286.538 874.319,274.892C869.829,272.669 867.989,267.22 870.211,262.73C872.434,258.241 877.883,256.4 882.373,258.623C902.597,268.634 920.744,280.802 934.412,293.881ZM1023.289,392.612C1023.899,389.589 1023.541,386.334 1022.17,383.835C1021.626,382.842 1021.188,381.785 1020.287,381.785L884.033,381.785C883.133,381.785 882.694,382.842 882.15,383.835C880.779,386.334 880.421,389.589 881.031,392.612L898.073,477.029C898.387,478.582 898.935,479.964 899.725,481.039C900.135,481.597 900.471,482.246 901.076,482.246L1003.245,482.246C1003.85,482.246 1004.185,481.597 1004.595,481.039C1005.385,479.964 1005.933,478.582 1006.247,477.029L1023.289,392.612Z"/>
            </g>
        </g>
    </g>
</svg>
