<?xml version="1.0" encoding="UTF-8" standalone="no"?>
<!DOCTYPE svg PUBLIC "-//W3C//DTD SVG 1.1//EN" "http://www.w3.org/Graphics/SVG/1.1/DTD/svg11.dtd">
<svg width="100%" height="100%" viewBox="0 0 240 240" version="1.1" xmlns="http://www.w3.org/2000/svg" xmlns:xlink="http://www.w3.org/1999/xlink" xml:space="preserve" xmlns:serif="http://www.serif.com/" style="fill-rule:evenodd;clip-rule:evenodd;stroke-linejoin:round;stroke-miterlimit:2;">
    <g id="Solid" transform="matrix(0.979764,0,0,0.979764,2.428226,1.095349)">
        <g transform="matrix(1.020654,0,0,1.020654,-2.478378,-1.117972)">
            <path d="M43.523,143C43.743,138.989 44.807,135.09 46.609,131.805C50.187,125.281 56.062,121.897 61.98,121.897L112.972,121.897L112.972,105.808L112.972,105.801C112.977,99.552 110.591,93.262 106.562,87.053C102.587,89.268 97.018,92.1 91.499,94.007C85.103,96.217 77.979,97.658 70.966,97.224C54.84,96.226 42.182,91.264 32.347,82.343C18.336,69.633 9.961,48.299 6.662,16.818C6.271,13.09 8.575,9.607 12.159,8.508C60.802,-6.413 91.346,0.009 107.305,14.54C120.729,26.762 124.95,45.171 120.917,64.332C115.789,58.305 109.181,52.73 100.922,48.754C90.93,43.945 68.052,38.7 54.683,30.435C52.384,29.014 49.362,29.726 47.941,32.026C46.519,34.326 47.232,37.347 49.531,38.769C63.175,47.204 86.475,52.674 96.672,57.582C111.722,64.827 120.244,78.388 123.778,88.482L124.015,90.219C126.304,88.257 128.51,86.45 130.664,84.775L130.657,84.729C142.392,74.086 150.195,71.856 160.014,69.917C167.218,68.495 175.399,67.198 186.482,63.43C189.041,62.56 190.413,59.775 189.543,57.216C188.673,54.656 185.888,53.284 183.328,54.154C172.774,57.742 164.977,58.951 158.116,60.305C148.75,62.155 140.964,64.227 130.921,71.776C132.44,63.046 136.569,54.523 142.818,48.399C142.974,48.246 143.136,48.099 143.305,47.96C171.417,24.675 199.705,27.906 228.164,38.123C231.19,39.209 233.246,42.033 233.35,45.247C234.24,72.754 210.789,108.771 165.101,111.046C160.056,111.297 155.647,110.757 151.829,109.649C145.356,107.77 140.443,104.304 136.942,99.852C134.304,102.013 131.561,104.399 128.648,107.06L128.648,121.897L179.639,121.897C185.557,121.897 191.433,125.281 195.011,131.805C196.812,135.09 197.877,138.989 198.096,143L43.523,143Z"/>
        </g>
        <g transform="matrix(1.020654,0,0,1.020654,-2.478378,-1.117972)">
            <path d="M195.782,159L182.881,222.921C180.739,233.532 172.884,240 164.923,240L76.697,240C68.736,240 60.88,233.532 58.738,222.921L45.838,159L195.782,159Z"/>
        </g>
    </g>
</svg>
