<?xml version="1.0" encoding="UTF-8" standalone="no"?>
<!DOCTYPE svg PUBLIC "-//W3C//DTD SVG 1.1//EN" "http://www.w3.org/Graphics/SVG/1.1/DTD/svg11.dtd">
<svg width="100%" height="100%" viewBox="0 0 256 240" version="1.1" xmlns="http://www.w3.org/2000/svg" xmlns:xlink="http://www.w3.org/1999/xlink" xml:space="preserve" xmlns:serif="http://www.serif.com/" style="fill-rule:evenodd;clip-rule:evenodd;stroke-linejoin:round;stroke-miterlimit:2;">
    <g transform="matrix(1,0,0,1,-822.999728,-225.148145)">
        <path d="M935.89,301.132C939.646,290.809 942.341,277.939 936.561,265.534C923.663,237.848 892.928,228.673 835.523,245.315C839.965,282.106 851.669,319.72 895.039,320C903.03,320.052 908.238,321.08 918.575,316.512C921.604,315.173 925.149,316.546 926.488,319.575C927.827,322.604 926.454,326.149 923.425,327.488C910.905,333.021 904.64,332.062 894.961,332C842.486,331.66 827.678,285.958 823.033,241.625C822.734,238.771 824.497,236.105 827.24,235.264C896.358,214.063 932.295,227.96 947.439,260.466C956.007,278.858 950.213,298.164 944.616,311.647C949.788,318.651 953.654,325.638 955.905,332.32C959.925,328.774 964.024,325.344 968.204,322.06C964.769,306.624 968.584,293.108 980.5,281.429C980.6,281.332 980.703,281.238 980.811,281.149C1012.039,255.284 1043.489,259.106 1075.104,270.455C1077.034,271.148 1078.345,272.95 1078.412,274.999C1079.752,316.421 1040.071,346.815 1003.025,347C988.747,347.071 995.515,347.967 983.017,344.852C980.339,344.184 978.707,341.468 979.375,338.791C980.042,336.113 982.758,334.481 985.436,335.148C996.39,337.879 990.461,337.062 1002.975,337C1033.914,336.846 1067.367,312.673 1068.419,278.71C1041.262,269.447 1014.187,266.593 987.35,288.718C979.475,296.508 976.259,305.354 977.237,315.288C996.21,301.76 1016.774,291.491 1039.031,287.095C1041.738,286.56 1044.37,288.324 1044.905,291.031C1045.44,293.738 1043.676,296.37 1040.969,296.905C1017.738,301.494 996.521,312.959 977.091,327.809C976.96,327.921 976.823,328.026 976.68,328.124C970.338,332.993 964.186,338.222 958.217,343.688C958.19,343.712 958.163,343.736 958.137,343.759C958.153,344.177 958.16,344.592 958.16,345.005L958.16,345.035L958.035,366.708L1020.287,366.708C1026.028,366.708 1031.438,369.394 1034.908,373.967C1038.379,378.54 1039.51,384.474 1037.965,390.003L1020.923,451.003C1018.707,458.934 1011.48,464.419 1003.245,464.419L901.076,464.419C892.84,464.419 885.613,458.934 883.397,451.003L866.355,390.003C864.81,384.474 865.941,378.54 869.412,373.967C872.882,369.394 878.292,366.708 884.033,366.708L946.035,366.708L946.16,344.969C946.158,336.186 941.105,326.416 933.244,316.489C933.102,316.328 932.969,316.161 932.845,315.988C931.803,314.687 930.713,313.383 929.58,312.078C913.465,293.516 888.466,275.321 864.338,263.377C861.37,261.908 860.154,258.306 861.623,255.338C863.092,252.37 866.694,251.154 869.662,252.623C893.853,264.599 918.831,282.569 935.89,301.132ZM1023.673,396.564L1026.408,386.774C1026.943,384.859 1026.551,382.805 1025.349,381.222C1024.148,379.638 1022.275,378.708 1020.287,378.708L884.033,378.708C882.046,378.708 880.172,379.638 878.971,381.222C877.769,382.805 877.377,384.859 877.912,386.774L890.705,432.564L934.03,432.564C936.79,432.564 939.03,434.804 939.03,437.564C939.03,440.323 936.79,442.564 934.03,442.564L893.499,442.564L894.955,447.774C895.722,450.52 898.224,452.419 901.076,452.419L1003.245,452.419C1006.096,452.419 1008.598,450.52 1009.366,447.774L1020.879,406.564L972.03,406.564C969.271,406.564 967.03,404.323 967.03,401.564C967.03,398.804 969.271,396.564 972.03,396.564L1023.673,396.564Z"/>
    </g>
</svg>
