<?xml version="1.0" encoding="UTF-8" standalone="no"?>
<!DOCTYPE svg PUBLIC "-//W3C//DTD SVG 1.1//EN" "http://www.w3.org/Graphics/SVG/1.1/DTD/svg11.dtd">
<svg width="100%" height="100%" viewBox="0 0 240 240" version="1.1" xmlns="http://www.w3.org/2000/svg" xmlns:xlink="http://www.w3.org/1999/xlink" xml:space="preserve" xmlns:serif="http://www.serif.com/" style="fill-rule:evenodd;clip-rule:evenodd;stroke-linejoin:round;stroke-miterlimit:2;">
    <g transform="matrix(0.46875,0,0,0.46875,30,0)">
        <path d="M305.787,299.905C332.465,271.703 348.798,233.811 348.798,191.998C348.798,105.432 278.565,35.2 192,35.2C105.435,35.2 35.202,105.432 35.202,191.998C35.202,233.811 51.535,271.703 78.213,299.905C101.406,324.296 127.103,358.704 136.25,401.062L247.75,401.062C256.897,358.595 282.594,324.296 305.787,299.905ZM331.3,324.1C307.7,349 288,379.4 288,413.7L288,432C288,476.2 252.2,512 208,512L176,512C131.8,512 96,476.2 96,432L96,413.7C96,379.4 76.3,349 52.7,324.1C20,289.7 0,243.2 0,192C0,86 86,0 192,0C298,0 384,86 384,192C384,243.2 364,289.7 331.3,324.1ZM134.857,167.238C134.857,178.005 126.195,186.667 115.429,186.667C104.662,186.667 96,178.005 96,167.238C96,127.895 127.895,96 167.238,96C178.005,96 186.667,104.662 186.667,115.429C186.667,126.195 178.005,134.857 167.238,134.857C149.348,134.857 134.857,149.348 134.857,167.238Z" style="fill-rule:nonzero;"/>
    </g>
</svg>
